<mxfile host="65bd71144e">
    <diagram id="8Rh75xTKgCq31xlRiyRK" name="transaction">
        <mxGraphModel dx="1474" dy="682" grid="1" gridSize="10" guides="1" tooltips="1" connect="1" arrows="1" fold="1" page="1" pageScale="1" pageWidth="827" pageHeight="1169" math="0" shadow="0">
            <root>
                <mxCell id="0"/>
                <mxCell id="1" parent="0"/>
                <mxCell id="4S6udo5-48mWSQfhHJvI-1" value="" style="endArrow=oval;html=1;rounded=0;startArrow=oval;startFill=1;endFill=1;" parent="1" edge="1">
                    <mxGeometry width="50" height="50" relative="1" as="geometry">
                        <mxPoint x="160" y="535" as="sourcePoint"/>
                        <mxPoint x="159.66" y="75" as="targetPoint"/>
                    </mxGeometry>
                </mxCell>
                <mxCell id="4S6udo5-48mWSQfhHJvI-2" value="" style="endArrow=oval;html=1;rounded=0;startArrow=oval;startFill=1;endFill=1;" parent="1" edge="1">
                    <mxGeometry width="50" height="50" relative="1" as="geometry">
                        <mxPoint x="400" y="535" as="sourcePoint"/>
                        <mxPoint x="399.66" y="75" as="targetPoint"/>
                    </mxGeometry>
                </mxCell>
                <mxCell id="4S6udo5-48mWSQfhHJvI-3" value="Vendor (V)" style="text;html=1;strokeColor=none;fillColor=none;align=center;verticalAlign=middle;whiteSpace=wrap;rounded=0;fontSize=18;" parent="1" vertex="1">
                    <mxGeometry x="130" y="27" width="60" height="30" as="geometry"/>
                </mxCell>
                <mxCell id="4S6udo5-48mWSQfhHJvI-4" value="Provider&lt;br&gt;(P)" style="text;html=1;strokeColor=none;fillColor=none;align=center;verticalAlign=middle;whiteSpace=wrap;rounded=0;fontSize=18;" parent="1" vertex="1">
                    <mxGeometry x="370" y="27" width="60" height="30" as="geometry"/>
                </mxCell>
                <mxCell id="4S6udo5-48mWSQfhHJvI-5" value="" style="endArrow=classic;html=1;rounded=0;fontSize=18;dashed=1;" parent="1" edge="1">
                    <mxGeometry width="50" height="50" relative="1" as="geometry">
                        <mxPoint x="160" y="100" as="sourcePoint"/>
                        <mxPoint x="400" y="100" as="targetPoint"/>
                    </mxGeometry>
                </mxCell>
                <mxCell id="4S6udo5-48mWSQfhHJvI-6" value="S_URL&lt;sub style=&quot;font-size: 12px;&quot;&gt;1&lt;/sub&gt;" style="text;html=1;strokeColor=none;fillColor=none;align=center;verticalAlign=middle;whiteSpace=wrap;rounded=0;fontSize=12;" parent="1" vertex="1">
                    <mxGeometry x="250" y="70" width="60" height="30" as="geometry"/>
                </mxCell>
                <mxCell id="4S6udo5-48mWSQfhHJvI-7" value="" style="endArrow=classic;html=1;rounded=0;fontSize=12;" parent="1" edge="1">
                    <mxGeometry width="50" height="50" relative="1" as="geometry">
                        <mxPoint x="400" y="160" as="sourcePoint"/>
                        <mxPoint x="160" y="160" as="targetPoint"/>
                    </mxGeometry>
                </mxCell>
                <mxCell id="4S6udo5-48mWSQfhHJvI-8" value="&lt;b&gt;&lt;font style=&quot;font-size: 14px;&quot;&gt;ProviderHello&lt;/font&gt;&lt;/b&gt;" style="text;html=1;strokeColor=none;fillColor=none;align=center;verticalAlign=middle;whiteSpace=wrap;rounded=0;fontSize=12;" parent="1" vertex="1">
                    <mxGeometry x="250" y="130" width="60" height="30" as="geometry"/>
                </mxCell>
                <mxCell id="4S6udo5-48mWSQfhHJvI-9" value="T_ID, PIN, Sign(S_URL&lt;sub style=&quot;font-size: 12px;&quot;&gt;1&lt;/sub&gt;)" style="text;html=1;strokeColor=none;fillColor=none;align=center;verticalAlign=middle;whiteSpace=wrap;rounded=0;fontSize=12;" parent="1" vertex="1">
                    <mxGeometry x="195" y="160" width="170" height="30" as="geometry"/>
                </mxCell>
                <mxCell id="4S6udo5-48mWSQfhHJvI-11" value="" style="endArrow=classic;html=1;rounded=0;fontSize=14;" parent="1" edge="1">
                    <mxGeometry width="50" height="50" relative="1" as="geometry">
                        <mxPoint x="160" y="240" as="sourcePoint"/>
                        <mxPoint x="400" y="240" as="targetPoint"/>
                    </mxGeometry>
                </mxCell>
                <mxCell id="4S6udo5-48mWSQfhHJvI-12" value="&lt;b&gt;&lt;font style=&quot;font-size: 14px;&quot;&gt;VendorOffer&lt;/font&gt;&lt;/b&gt;" style="text;html=1;strokeColor=none;fillColor=none;align=center;verticalAlign=middle;whiteSpace=wrap;rounded=0;fontSize=12;" parent="1" vertex="1">
                    <mxGeometry x="250" y="210" width="60" height="30" as="geometry"/>
                </mxCell>
                <mxCell id="4S6udo5-48mWSQfhHJvI-13" value="S_URL&lt;sub&gt;2&lt;/sub&gt;, V_DETAILS, TOKEN, V_KEY, V_SIGN, STATE, ERROR_CODE?" style="text;html=1;strokeColor=none;fillColor=none;align=center;verticalAlign=middle;whiteSpace=wrap;rounded=0;fontSize=12;" parent="1" vertex="1">
                    <mxGeometry x="170" y="243" width="220" height="30" as="geometry"/>
                </mxCell>
                <mxCell id="4S6udo5-48mWSQfhHJvI-15" value="" style="endArrow=classic;html=1;rounded=0;fontSize=14;" parent="1" edge="1">
                    <mxGeometry width="50" height="50" relative="1" as="geometry">
                        <mxPoint x="400" y="400" as="sourcePoint"/>
                        <mxPoint x="160" y="400" as="targetPoint"/>
                    </mxGeometry>
                </mxCell>
                <mxCell id="4S6udo5-48mWSQfhHJvI-16" value="" style="endArrow=classic;html=1;rounded=0;fontSize=18;dashed=1;" parent="1" edge="1">
                    <mxGeometry width="50" height="50" relative="1" as="geometry">
                        <mxPoint x="160" y="320" as="sourcePoint"/>
                        <mxPoint x="400.0000000000002" y="320" as="targetPoint"/>
                    </mxGeometry>
                </mxCell>
                <mxCell id="4S6udo5-48mWSQfhHJvI-17" value="PIN" style="text;html=1;strokeColor=none;fillColor=none;align=center;verticalAlign=middle;whiteSpace=wrap;rounded=0;fontSize=12;" parent="1" vertex="1">
                    <mxGeometry x="250" y="290" width="60" height="30" as="geometry"/>
                </mxCell>
                <mxCell id="4S6udo5-48mWSQfhHJvI-18" value="Scan QR" style="rounded=1;whiteSpace=wrap;html=1;fontSize=12;" parent="1" vertex="1">
                    <mxGeometry x="414" y="80" width="56" height="40" as="geometry"/>
                </mxCell>
                <mxCell id="4S6udo5-48mWSQfhHJvI-19" value="Accept or Deny,&lt;br&gt;Enter PIN" style="rounded=1;whiteSpace=wrap;html=1;fontSize=12;" parent="1" vertex="1">
                    <mxGeometry x="414" y="300" width="96" height="40" as="geometry"/>
                </mxCell>
                <mxCell id="4S6udo5-48mWSQfhHJvI-21" value="&lt;b&gt;&lt;font style=&quot;font-size: 14px;&quot;&gt;ProviderConfirm&lt;/font&gt;&lt;/b&gt;" style="text;html=1;strokeColor=none;fillColor=none;align=center;verticalAlign=middle;whiteSpace=wrap;rounded=0;fontSize=12;" parent="1" vertex="1">
                    <mxGeometry x="250" y="370" width="60" height="30" as="geometry"/>
                </mxCell>
                <mxCell id="4S6udo5-48mWSQfhHJvI-22" value="T_ID, TOKEN, V_KEY, V_SIGN, P_KEY, P_SIGN, REMEDIATION_URL,&amp;nbsp;ERROR_CODE?" style="text;html=1;strokeColor=none;fillColor=none;align=center;verticalAlign=middle;whiteSpace=wrap;rounded=0;fontSize=12;" parent="1" vertex="1">
                    <mxGeometry x="180" y="410" width="200" height="30" as="geometry"/>
                </mxCell>
                <mxCell id="4S6udo5-48mWSQfhHJvI-23" value="" style="endArrow=classic;html=1;rounded=0;fontSize=14;" parent="1" edge="1">
                    <mxGeometry width="50" height="50" relative="1" as="geometry">
                        <mxPoint x="160" y="500" as="sourcePoint"/>
                        <mxPoint x="400" y="500" as="targetPoint"/>
                    </mxGeometry>
                </mxCell>
                <mxCell id="4S6udo5-48mWSQfhHJvI-25" value="&lt;b&gt;&lt;font style=&quot;font-size: 14px;&quot;&gt;VendorAck&lt;/font&gt;&lt;/b&gt;" style="text;html=1;strokeColor=none;fillColor=none;align=center;verticalAlign=middle;whiteSpace=wrap;rounded=0;fontSize=12;" parent="1" vertex="1">
                    <mxGeometry x="250" y="470" width="60" height="30" as="geometry"/>
                </mxCell>
                <mxCell id="4S6udo5-48mWSQfhHJvI-26" value="{ACK}, STATE, REVISION_URL" style="text;html=1;strokeColor=none;fillColor=none;align=center;verticalAlign=middle;whiteSpace=wrap;rounded=0;fontSize=12;" parent="1" vertex="1">
                    <mxGeometry x="170" y="500" width="220" height="30" as="geometry"/>
                </mxCell>
                <mxCell id="4S6udo5-48mWSQfhHJvI-27" value="" style="shape=curlyBracket;whiteSpace=wrap;html=1;rounded=1;fontSize=12;" parent="1" vertex="1">
                    <mxGeometry x="130" y="80" width="20" height="200" as="geometry"/>
                </mxCell>
                <mxCell id="4S6udo5-48mWSQfhHJvI-29" value="Negotiation&lt;br&gt;Phase&lt;br&gt;(S_URL&lt;span style=&quot;font-size: 10px;&quot;&gt;1&lt;/span&gt;)" style="text;html=1;strokeColor=none;fillColor=none;align=right;verticalAlign=middle;whiteSpace=wrap;rounded=0;fontSize=12;" parent="1" vertex="1">
                    <mxGeometry x="70" y="195" width="60" height="30" as="geometry"/>
                </mxCell>
                <mxCell id="4S6udo5-48mWSQfhHJvI-30" value="" style="shape=curlyBracket;whiteSpace=wrap;html=1;rounded=1;fontSize=12;" parent="1" vertex="1">
                    <mxGeometry x="130" y="290" width="20" height="230" as="geometry"/>
                </mxCell>
                <mxCell id="4S6udo5-48mWSQfhHJvI-31" value="Confirmation&lt;br&gt;Phase&lt;br&gt;(S_URL&lt;sub&gt;2&lt;/sub&gt;)" style="text;html=1;strokeColor=none;fillColor=none;align=right;verticalAlign=middle;whiteSpace=wrap;rounded=0;fontSize=12;" parent="1" vertex="1">
                    <mxGeometry x="69" y="425" width="60" height="30" as="geometry"/>
                </mxCell>
                <mxCell id="4S6udo5-48mWSQfhHJvI-32" value="" style="shape=curlyBracket;whiteSpace=wrap;html=1;rounded=1;fontSize=12;" parent="1" vertex="1">
                    <mxGeometry x="44" y="80" width="20" height="440" as="geometry"/>
                </mxCell>
                <mxCell id="4S6udo5-48mWSQfhHJvI-33" value="Transaction&lt;br&gt;(T_ID)" style="text;html=1;strokeColor=none;fillColor=none;align=center;verticalAlign=middle;whiteSpace=wrap;rounded=0;fontSize=12;" parent="1" vertex="1">
                    <mxGeometry x="-23" y="285" width="60" height="30" as="geometry"/>
                </mxCell>
                <mxCell id="2" value="" style="shape=curlyBracket;whiteSpace=wrap;html=1;rounded=1;fontSize=12;" parent="1" vertex="1">
                    <mxGeometry x="109" y="78" width="20" height="60" as="geometry"/>
                </mxCell>
                <mxCell id="3" value="User&lt;br&gt;Input" style="text;html=1;strokeColor=none;fillColor=none;align=right;verticalAlign=middle;whiteSpace=wrap;rounded=0;fontSize=12;fontStyle=2" parent="1" vertex="1">
                    <mxGeometry x="50" y="93" width="60" height="30" as="geometry"/>
                </mxCell>
                <mxCell id="4" value="" style="shape=curlyBracket;whiteSpace=wrap;html=1;rounded=1;fontSize=12;" parent="1" vertex="1">
                    <mxGeometry x="110" y="290" width="20" height="60" as="geometry"/>
                </mxCell>
                <mxCell id="5" value="User&lt;br&gt;Input" style="text;html=1;strokeColor=none;fillColor=none;align=right;verticalAlign=middle;whiteSpace=wrap;rounded=0;fontSize=12;fontStyle=2" parent="1" vertex="1">
                    <mxGeometry x="51" y="305" width="60" height="30" as="geometry"/>
                </mxCell>
                <mxCell id="6" value="&lt;b style=&quot;font-size: 13px;&quot;&gt;1&lt;/b&gt;" style="text;html=1;strokeColor=none;fillColor=none;align=left;verticalAlign=middle;whiteSpace=wrap;rounded=0;fontSize=13;" parent="1" vertex="1">
                    <mxGeometry x="530" y="85" width="50" height="30" as="geometry"/>
                </mxCell>
                <mxCell id="8" value="" style="endArrow=none;dashed=1;html=1;" parent="1" edge="1">
                    <mxGeometry width="50" height="50" relative="1" as="geometry">
                        <mxPoint x="520" y="537.5" as="sourcePoint"/>
                        <mxPoint x="520" y="72.5" as="targetPoint"/>
                    </mxGeometry>
                </mxCell>
                <mxCell id="9" value="&lt;b style=&quot;font-size: 13px;&quot;&gt;2&lt;/b&gt;" style="text;html=1;strokeColor=none;fillColor=none;align=left;verticalAlign=middle;whiteSpace=wrap;rounded=0;fontSize=13;" parent="1" vertex="1">
                    <mxGeometry x="530" y="144" width="50" height="30" as="geometry"/>
                </mxCell>
                <mxCell id="10" value="&lt;b style=&quot;font-size: 13px;&quot;&gt;3&lt;/b&gt;" style="text;html=1;strokeColor=none;fillColor=none;align=left;verticalAlign=middle;whiteSpace=wrap;rounded=0;fontSize=13;" parent="1" vertex="1">
                    <mxGeometry x="528" y="225" width="50" height="30" as="geometry"/>
                </mxCell>
                <mxCell id="11" value="&lt;b style=&quot;font-size: 13px;&quot;&gt;4&lt;/b&gt;" style="text;html=1;strokeColor=none;fillColor=none;align=left;verticalAlign=middle;whiteSpace=wrap;rounded=0;fontSize=13;" parent="1" vertex="1">
                    <mxGeometry x="528" y="305" width="50" height="30" as="geometry"/>
                </mxCell>
                <mxCell id="12" value="&lt;b style=&quot;font-size: 13px;&quot;&gt;5&lt;/b&gt;" style="text;html=1;strokeColor=none;fillColor=none;align=left;verticalAlign=middle;whiteSpace=wrap;rounded=0;fontSize=13;" parent="1" vertex="1">
                    <mxGeometry x="527" y="385" width="50" height="30" as="geometry"/>
                </mxCell>
                <mxCell id="13" value="&lt;b style=&quot;font-size: 13px;&quot;&gt;6&lt;/b&gt;" style="text;html=1;strokeColor=none;fillColor=none;align=left;verticalAlign=middle;whiteSpace=wrap;rounded=0;fontSize=13;" parent="1" vertex="1">
                    <mxGeometry x="527" y="485" width="50" height="30" as="geometry"/>
                </mxCell>
            </root>
        </mxGraphModel>
    </diagram>
    <diagram id="n3SqDo1spduCsQsH3ub5" name="vendor-remediation">
        <mxGraphModel dx="1409" dy="682" grid="1" gridSize="10" guides="1" tooltips="1" connect="1" arrows="1" fold="1" page="1" pageScale="1" pageWidth="827" pageHeight="1169" math="0" shadow="0">
            <root>
                <mxCell id="0"/>
                <mxCell id="1" parent="0"/>
                <mxCell id="GJk157rwJC61G22ALcTW-1" value="" style="endArrow=oval;html=1;rounded=0;startArrow=oval;startFill=1;endFill=1;" parent="1" edge="1">
                    <mxGeometry width="50" height="50" relative="1" as="geometry">
                        <mxPoint x="110" y="280" as="sourcePoint"/>
                        <mxPoint x="109.65999999999985" y="105" as="targetPoint"/>
                    </mxGeometry>
                </mxCell>
                <mxCell id="GJk157rwJC61G22ALcTW-2" value="" style="endArrow=oval;html=1;rounded=0;startArrow=oval;startFill=1;endFill=1;" parent="1" edge="1">
                    <mxGeometry width="50" height="50" relative="1" as="geometry">
                        <mxPoint x="350" y="280" as="sourcePoint"/>
                        <mxPoint x="349.65999999999985" y="105" as="targetPoint"/>
                    </mxGeometry>
                </mxCell>
                <mxCell id="GJk157rwJC61G22ALcTW-3" value="V" style="text;html=1;strokeColor=none;fillColor=none;align=center;verticalAlign=middle;whiteSpace=wrap;rounded=0;fontSize=18;" parent="1" vertex="1">
                    <mxGeometry x="80" y="70" width="60" height="30" as="geometry"/>
                </mxCell>
                <mxCell id="GJk157rwJC61G22ALcTW-4" value="P" style="text;html=1;strokeColor=none;fillColor=none;align=center;verticalAlign=middle;whiteSpace=wrap;rounded=0;fontSize=18;" parent="1" vertex="1">
                    <mxGeometry x="320" y="70" width="60" height="30" as="geometry"/>
                </mxCell>
                <mxCell id="GJk157rwJC61G22ALcTW-5" value="" style="endArrow=classic;html=1;rounded=0;fontSize=12;" parent="1" edge="1">
                    <mxGeometry width="50" height="50" relative="1" as="geometry">
                        <mxPoint x="110" y="140" as="sourcePoint"/>
                        <mxPoint x="350" y="140" as="targetPoint"/>
                    </mxGeometry>
                </mxCell>
                <mxCell id="GJk157rwJC61G22ALcTW-6" value="&lt;b&gt;&lt;font style=&quot;font-size: 14px;&quot;&gt;VendorRemediation&lt;br&gt;&lt;/font&gt;&lt;/b&gt;" style="text;html=1;strokeColor=none;fillColor=none;align=center;verticalAlign=middle;whiteSpace=wrap;rounded=0;fontSize=12;" parent="1" vertex="1">
                    <mxGeometry x="155" y="110" width="140" height="30" as="geometry"/>
                </mxCell>
                <mxCell id="GJk157rwJC61G22ALcTW-7" value="T_ID, V_CHALL, Sign(REMEDIATION_URL), CHANGE_VERB, [Enc(TOKEN)]" style="text;html=1;strokeColor=none;fillColor=none;align=center;verticalAlign=middle;whiteSpace=wrap;rounded=0;fontSize=12;" parent="1" vertex="1">
                    <mxGeometry x="120" y="140" width="210" height="50" as="geometry"/>
                </mxCell>
                <mxCell id="GJk157rwJC61G22ALcTW-14" value="" style="endArrow=classic;html=1;rounded=0;fontSize=12;" parent="1" edge="1">
                    <mxGeometry width="50" height="50" relative="1" as="geometry">
                        <mxPoint x="349" y="230" as="sourcePoint"/>
                        <mxPoint x="109" y="230" as="targetPoint"/>
                    </mxGeometry>
                </mxCell>
                <mxCell id="GJk157rwJC61G22ALcTW-15" value="&lt;b&gt;&lt;font style=&quot;font-size: 14px;&quot;&gt;ProviderAck&lt;br&gt;&lt;/font&gt;&lt;/b&gt;" style="text;html=1;strokeColor=none;fillColor=none;align=center;verticalAlign=middle;whiteSpace=wrap;rounded=0;fontSize=12;" parent="1" vertex="1">
                    <mxGeometry x="195" y="200" width="60" height="30" as="geometry"/>
                </mxCell>
                <mxCell id="GJk157rwJC61G22ALcTW-16" value="{ACK}, Sign(V_CHALL), [Sign(TOKEN)]" style="text;html=1;strokeColor=none;fillColor=none;align=center;verticalAlign=middle;whiteSpace=wrap;rounded=0;fontSize=12;" parent="1" vertex="1">
                    <mxGeometry x="135" y="230" width="190" height="30" as="geometry"/>
                </mxCell>
                <mxCell id="GJk157rwJC61G22ALcTW-17" value="" style="shape=curlyBracket;whiteSpace=wrap;html=1;rounded=1;flipH=0;fontSize=12;" parent="1" vertex="1">
                    <mxGeometry x="80" y="130" width="20" height="115" as="geometry"/>
                </mxCell>
                <mxCell id="GJk157rwJC61G22ALcTW-18" value="Token Remediation Phase&lt;br&gt;(REMEDIATION_URL)" style="text;html=1;strokeColor=none;fillColor=none;align=right;verticalAlign=middle;whiteSpace=wrap;rounded=0;fontSize=12;" parent="1" vertex="1">
                    <mxGeometry x="-50" y="165.5" width="130" height="42.5" as="geometry"/>
                </mxCell>
                <mxCell id="bCpwoRrvONR22wdCn11X-1" value="&lt;b style=&quot;font-size: 13px;&quot;&gt;1&lt;/b&gt;" style="text;html=1;strokeColor=none;fillColor=none;align=left;verticalAlign=middle;whiteSpace=wrap;rounded=0;fontSize=13;" vertex="1" parent="1">
                    <mxGeometry x="389" y="125" width="50" height="30" as="geometry"/>
                </mxCell>
                <mxCell id="bCpwoRrvONR22wdCn11X-2" value="" style="endArrow=none;dashed=1;html=1;" edge="1" parent="1">
                    <mxGeometry width="50" height="50" relative="1" as="geometry">
                        <mxPoint x="380" y="263" as="sourcePoint"/>
                        <mxPoint x="380" y="113" as="targetPoint"/>
                    </mxGeometry>
                </mxCell>
                <mxCell id="bCpwoRrvONR22wdCn11X-3" value="&lt;b style=&quot;font-size: 13px;&quot;&gt;2&lt;/b&gt;" style="text;html=1;strokeColor=none;fillColor=none;align=left;verticalAlign=middle;whiteSpace=wrap;rounded=0;fontSize=13;" vertex="1" parent="1">
                    <mxGeometry x="389" y="217" width="50" height="30" as="geometry"/>
                </mxCell>
            </root>
        </mxGraphModel>
    </diagram>
    <diagram id="BJxdPWhrc124KGzjdr-b" name="provider-revision">
        <mxGraphModel dx="-108" dy="758" grid="1" gridSize="10" guides="1" tooltips="1" connect="1" arrows="1" fold="1" page="1" pageScale="1" pageWidth="827" pageHeight="1169" math="0" shadow="0">
            <root>
                <mxCell id="0"/>
                <mxCell id="1" parent="0"/>
                <mxCell id="BUyxELpNQ_CBDmK3M62N-1" value="" style="endArrow=oval;html=1;rounded=0;startArrow=oval;startFill=1;endFill=1;" edge="1" parent="1">
                    <mxGeometry width="50" height="50" relative="1" as="geometry">
                        <mxPoint x="1001" y="270" as="sourcePoint"/>
                        <mxPoint x="1000.6599999999999" y="95" as="targetPoint"/>
                    </mxGeometry>
                </mxCell>
                <mxCell id="BUyxELpNQ_CBDmK3M62N-2" value="" style="endArrow=oval;html=1;rounded=0;startArrow=oval;startFill=1;endFill=1;" edge="1" parent="1">
                    <mxGeometry width="50" height="50" relative="1" as="geometry">
                        <mxPoint x="1241" y="270" as="sourcePoint"/>
                        <mxPoint x="1240.6599999999999" y="95" as="targetPoint"/>
                    </mxGeometry>
                </mxCell>
                <mxCell id="BUyxELpNQ_CBDmK3M62N-3" value="V" style="text;html=1;strokeColor=none;fillColor=none;align=center;verticalAlign=middle;whiteSpace=wrap;rounded=0;fontSize=18;" vertex="1" parent="1">
                    <mxGeometry x="971" y="60" width="60" height="30" as="geometry"/>
                </mxCell>
                <mxCell id="BUyxELpNQ_CBDmK3M62N-4" value="P" style="text;html=1;strokeColor=none;fillColor=none;align=center;verticalAlign=middle;whiteSpace=wrap;rounded=0;fontSize=18;" vertex="1" parent="1">
                    <mxGeometry x="1211" y="60" width="60" height="30" as="geometry"/>
                </mxCell>
                <mxCell id="BUyxELpNQ_CBDmK3M62N-5" value="" style="endArrow=classic;html=1;rounded=0;fontSize=12;" edge="1" parent="1">
                    <mxGeometry width="50" height="50" relative="1" as="geometry">
                        <mxPoint x="1241" y="131.1111111111113" as="sourcePoint"/>
                        <mxPoint x="1001" y="131.1111111111113" as="targetPoint"/>
                    </mxGeometry>
                </mxCell>
                <mxCell id="BUyxELpNQ_CBDmK3M62N-6" value="&lt;b&gt;&lt;font style=&quot;font-size: 14px;&quot;&gt;ProviderRevision&lt;br&gt;&lt;/font&gt;&lt;/b&gt;" style="text;html=1;strokeColor=none;fillColor=none;align=center;verticalAlign=middle;whiteSpace=wrap;rounded=0;fontSize=12;" vertex="1" parent="1">
                    <mxGeometry x="1046" y="100" width="140" height="30" as="geometry"/>
                </mxCell>
                <mxCell id="BUyxELpNQ_CBDmK3M62N-7" value="T_ID, P_CHALL, Sign(REVISION_URL), REVISION_VERB, [MOD_STATUS], [Enc(TOKEN)]" style="text;html=1;strokeColor=none;fillColor=none;align=center;verticalAlign=middle;whiteSpace=wrap;rounded=0;fontSize=12;" vertex="1" parent="1">
                    <mxGeometry x="1000" y="130" width="240" height="60" as="geometry"/>
                </mxCell>
                <mxCell id="BUyxELpNQ_CBDmK3M62N-8" value="" style="endArrow=classic;html=1;rounded=0;fontSize=12;" edge="1" parent="1">
                    <mxGeometry width="50" height="50" relative="1" as="geometry">
                        <mxPoint x="1000" y="226.1111111111113" as="sourcePoint"/>
                        <mxPoint x="1240" y="226.1111111111113" as="targetPoint"/>
                    </mxGeometry>
                </mxCell>
                <mxCell id="BUyxELpNQ_CBDmK3M62N-9" value="&lt;b&gt;&lt;font style=&quot;font-size: 14px;&quot;&gt;ProviderAck&lt;br&gt;&lt;/font&gt;&lt;/b&gt;" style="text;html=1;strokeColor=none;fillColor=none;align=center;verticalAlign=middle;whiteSpace=wrap;rounded=0;fontSize=12;" vertex="1" parent="1">
                    <mxGeometry x="1086" y="195" width="60" height="30" as="geometry"/>
                </mxCell>
                <mxCell id="BUyxELpNQ_CBDmK3M62N-10" value="{ACK}, Sign(V_CHALL), SUCCESS" style="text;html=1;strokeColor=none;fillColor=none;align=center;verticalAlign=middle;whiteSpace=wrap;rounded=0;fontSize=12;" vertex="1" parent="1">
                    <mxGeometry x="1026" y="225" width="190" height="30" as="geometry"/>
                </mxCell>
                <mxCell id="BUyxELpNQ_CBDmK3M62N-11" value="" style="shape=curlyBracket;whiteSpace=wrap;html=1;rounded=1;flipH=0;fontSize=12;" vertex="1" parent="1">
                    <mxGeometry x="971" y="120" width="20" height="115" as="geometry"/>
                </mxCell>
                <mxCell id="BUyxELpNQ_CBDmK3M62N-12" value="Token Revision Phase&lt;br&gt;(REVISION_URL)" style="text;html=1;strokeColor=none;fillColor=none;align=right;verticalAlign=middle;whiteSpace=wrap;rounded=0;fontSize=12;" vertex="1" parent="1">
                    <mxGeometry x="860" y="155.5" width="111" height="42.5" as="geometry"/>
                </mxCell>
                <mxCell id="BUyxELpNQ_CBDmK3M62N-13" value="&lt;b style=&quot;font-size: 13px;&quot;&gt;1&lt;/b&gt;" style="text;html=1;strokeColor=none;fillColor=none;align=left;verticalAlign=middle;whiteSpace=wrap;rounded=0;fontSize=13;" vertex="1" parent="1">
                    <mxGeometry x="1280" y="115" width="50" height="30" as="geometry"/>
                </mxCell>
                <mxCell id="BUyxELpNQ_CBDmK3M62N-14" value="" style="endArrow=none;dashed=1;html=1;" edge="1" parent="1">
                    <mxGeometry width="50" height="50" relative="1" as="geometry">
                        <mxPoint x="1271" y="253" as="sourcePoint"/>
                        <mxPoint x="1271" y="103" as="targetPoint"/>
                    </mxGeometry>
                </mxCell>
                <mxCell id="BUyxELpNQ_CBDmK3M62N-15" value="&lt;b style=&quot;font-size: 13px;&quot;&gt;2&lt;/b&gt;" style="text;html=1;strokeColor=none;fillColor=none;align=left;verticalAlign=middle;whiteSpace=wrap;rounded=0;fontSize=13;" vertex="1" parent="1">
                    <mxGeometry x="1280" y="212" width="50" height="30" as="geometry"/>
                </mxCell>
            </root>
        </mxGraphModel>
    </diagram>
</mxfile>